<svg class="main-svg" xmlns="http://www.w3.org/2000/svg" xmlns:xlink="http://www.w3.org/1999/xlink" width="650" height="350" style="" viewBox="0 0 650 350"><rect x="0" y="0" width="650" height="350" style="fill: rgb(255, 255, 255); fill-opacity: 1;"/><defs id="defs-3cd2bb"><g class="clips"><clipPath id="clip3cd2bbxyplot" class="plotclip"><rect width="466" height="150"/></clipPath><clipPath class="axesclip" id="clip3cd2bbx"><rect x="80" y="0" width="466" height="350"/></clipPath><clipPath class="axesclip" id="clip3cd2bby"><rect x="0" y="60" width="650" height="150"/></clipPath><clipPath class="axesclip" id="clip3cd2bbxy"><rect x="80" y="60" width="466" height="150"/></clipPath></g><g class="gradients"/><g class="patterns"/></defs><g class="bglayer"><rect class="bg" x="80" y="60" width="466" height="150" style="fill: rgb(229, 236, 246); fill-opacity: 1; stroke-width: 0;"/></g><g class="layer-below"><g class="imagelayer"/><g class="shapelayer"/></g><g class="cartesianlayer"><g class="subplot xy"><g class="layer-subplot"><g class="shapelayer"/><g class="imagelayer"/></g><g class="minor-gridlayer"><g class="x"/><g class="y"/></g><g class="gridlayer"><g class="x"><path class="xgrid crisp" transform="translate(165.36,0)" d="M0,60v150" style="stroke: rgb(255, 255, 255); stroke-opacity: 1; stroke-width: 1px;"/><path class="xgrid crisp" transform="translate(249.73,0)" d="M0,60v150" style="stroke: rgb(255, 255, 255); stroke-opacity: 1; stroke-width: 1px;"/><path class="xgrid crisp" transform="translate(334.09000000000003,0)" d="M0,60v150" style="stroke: rgb(255, 255, 255); stroke-opacity: 1; stroke-width: 1px;"/><path class="xgrid crisp" transform="translate(418.45,0)" d="M0,60v150" style="stroke: rgb(255, 255, 255); stroke-opacity: 1; stroke-width: 1px;"/><path class="xgrid crisp" transform="translate(502.82,0)" d="M0,60v150" style="stroke: rgb(255, 255, 255); stroke-opacity: 1; stroke-width: 1px;"/></g><g class="y"><path class="ygrid crisp" transform="translate(0,155.18)" d="M80,0h466" style="stroke: rgb(255, 255, 255); stroke-opacity: 1; stroke-width: 1px;"/><path class="ygrid crisp" transform="translate(0,101.36)" d="M80,0h466" style="stroke: rgb(255, 255, 255); stroke-opacity: 1; stroke-width: 1px;"/></g></g><g class="zerolinelayer"><path class="xzl zl crisp" transform="translate(81,0)" d="M0,60v150" style="stroke: rgb(255, 255, 255); stroke-opacity: 1; stroke-width: 2px;"/><path class="yzl zl crisp" transform="translate(0,209)" d="M80,0h466" style="stroke: rgb(255, 255, 255); stroke-opacity: 1; stroke-width: 2px;"/></g><path class="xlines-below"/><path class="ylines-below"/><g class="overlines-below"/><g class="xaxislayer-below"/><g class="yaxislayer-below"/><g class="overaxes-below"/><g class="plot" transform="translate(80,60)" clip-path="url(#clip3cd2bbxyplot)"><g class="scatterlayer mlayer"><g class="trace scatter trace98600b" style="stroke-miterlimit: 2; opacity: 1;"><g class="fills"/><g class="errorbars"/><g class="lines"/><g class="points"><path class="point" transform="translate(148.81,102.02)" d="M3,0A3,3 0 1,1 0,-3A3,3 0 0,1 3,0Z" style="opacity: 0.65; stroke-width: 0px; fill: rgb(99, 110, 250); fill-opacity: 1;"/><path class="point" transform="translate(175.89,95.83)" d="M3,0A3,3 0 1,1 0,-3A3,3 0 0,1 3,0Z" style="opacity: 0.65; stroke-width: 0px; fill: rgb(99, 110, 250); fill-opacity: 1;"/><path class="point" transform="translate(162.3,100.73)" d="M3,0A3,3 0 1,1 0,-3A3,3 0 0,1 3,0Z" style="opacity: 0.65; stroke-width: 0px; fill: rgb(99, 110, 250); fill-opacity: 1;"/><path class="point" transform="translate(186.68,94.35)" d="M3,0A3,3 0 1,1 0,-3A3,3 0 0,1 3,0Z" style="opacity: 0.65; stroke-width: 0px; fill: rgb(99, 110, 250); fill-opacity: 1;"/><path class="point" transform="translate(146.78,98.01)" d="M3,0A3,3 0 1,1 0,-3A3,3 0 0,1 3,0Z" style="opacity: 0.65; stroke-width: 0px; fill: rgb(99, 110, 250); fill-opacity: 1;"/><path class="point" transform="translate(198.92,91.28)" d="M3,0A3,3 0 1,1 0,-3A3,3 0 0,1 3,0Z" style="opacity: 0.65; stroke-width: 0px; fill: rgb(99, 110, 250); fill-opacity: 1;"/></g><g class="text"/></g><g class="trace scatter trace7c64b4" style="stroke-miterlimit: 2; opacity: 1;"><g class="fills"/><g class="errorbars"/><g class="lines"><path class="js-line" d="M146.78,100.98L198.92,92.08" style="vector-effect: non-scaling-stroke; fill: none; stroke: rgb(99, 110, 250); stroke-opacity: 1; stroke-width: 2px; opacity: 1;"/></g><g class="points"/><g class="text"/></g><g class="trace scatter trace710378" style="stroke-miterlimit: 2; opacity: 1;"><g class="fills"/><g class="errorbars"/><g class="lines"/><g class="points"><path class="point" transform="translate(162.13,97.6)" d="M4.5,0A4.5,4.5 0 1,1 0,-4.5A4.5,4.5 0 0,1 4.5,0Z" style="opacity: 1; stroke-width: 1px; fill: rgb(255, 0, 0); fill-opacity: 1; stroke: rgb(147, 112, 219); stroke-opacity: 1;"/></g><g class="text"/></g></g></g><g class="overplot"/><path class="xlines-above crisp" d="M0,0" style="fill: none;"/><path class="ylines-above crisp" d="M0,0" style="fill: none;"/><g class="overlines-above"/><g class="xaxislayer-above"><g class="xtick"><text text-anchor="middle" x="0" y="220" transform="translate(81,0)" style="font-family: 'Courier New', monospace; font-size: 9px; fill: rgb(102, 51, 153); fill-opacity: 1; white-space: pre; opacity: 1;">0</text></g><g class="xtick"><text text-anchor="middle" x="0" y="220" style="font-family: 'Courier New', monospace; font-size: 9px; fill: rgb(102, 51, 153); fill-opacity: 1; white-space: pre; opacity: 1;" transform="translate(165.36,0)">10</text></g><g class="xtick"><text text-anchor="middle" x="0" y="220" style="font-family: 'Courier New', monospace; font-size: 9px; fill: rgb(102, 51, 153); fill-opacity: 1; white-space: pre; opacity: 1;" transform="translate(249.73,0)">20</text></g><g class="xtick"><text text-anchor="middle" x="0" y="220" style="font-family: 'Courier New', monospace; font-size: 9px; fill: rgb(102, 51, 153); fill-opacity: 1; white-space: pre; opacity: 1;" transform="translate(334.09000000000003,0)">30</text></g><g class="xtick"><text text-anchor="middle" x="0" y="220" style="font-family: 'Courier New', monospace; font-size: 9px; fill: rgb(102, 51, 153); fill-opacity: 1; white-space: pre; opacity: 1;" transform="translate(418.45,0)">40</text></g><g class="xtick"><text text-anchor="middle" x="0" y="220" style="font-family: 'Courier New', monospace; font-size: 9px; fill: rgb(102, 51, 153); fill-opacity: 1; white-space: pre; opacity: 1;" transform="translate(502.82,0)">50</text></g></g><g class="yaxislayer-above"><g class="ytick"><text text-anchor="end" x="79" y="3.15" transform="translate(0,209)" style="font-family: 'Courier New', monospace; font-size: 9px; fill: rgb(102, 51, 153); fill-opacity: 1; white-space: pre; opacity: 1;">0</text></g><g class="ytick"><text text-anchor="end" x="79" y="3.15" style="font-family: 'Courier New', monospace; font-size: 9px; fill: rgb(102, 51, 153); fill-opacity: 1; white-space: pre; opacity: 1;" transform="translate(0,155.18)">20</text></g><g class="ytick"><text text-anchor="end" x="79" y="3.15" style="font-family: 'Courier New', monospace; font-size: 9px; fill: rgb(102, 51, 153); fill-opacity: 1; white-space: pre; opacity: 1;" transform="translate(0,101.36)">40</text></g></g><g class="overaxes-above"/></g></g><g class="polarlayer"/><g class="smithlayer"/><g class="ternarylayer"/><g class="geolayer"/><g class="funnelarealayer"/><g class="pielayer"/><g class="iciclelayer"/><g class="treemaplayer"/><g class="sunburstlayer"/><g class="glimages"/><defs id="topdefs-3cd2bb"><g class="clips"/><clipPath id="legend3cd2bb"><rect width="83" height="29" x="0" y="0"/></clipPath><clipPath id="rangesliderx-3cd2bb"><rect x="0" y="0" width="466" height="31.5"/></clipPath></defs><g class="layer-above"><g class="imagelayer"/><g class="shapelayer"><path data-index="0" fill-rule="evenodd" d="M81,209L545,61" clip-path="url(#clip3cd2bbxy)" style="opacity: 1; stroke: rgb(42, 63, 95); stroke-opacity: 1; fill: rgb(0, 0, 0); fill-opacity: 0; stroke-dasharray: 9px, 9px; stroke-width: 2px;"/></g></g><g class="infolayer"><g class="legend" pointer-events="all" transform="translate(555.3199999999999,60)"><rect class="bg" shape-rendering="crispEdges" width="83" height="29" x="0" y="0" style="stroke: rgb(68, 68, 68); stroke-opacity: 1; fill: rgb(255, 255, 255); fill-opacity: 1; stroke-width: 0px;"/><g class="scrollbox" transform="" clip-path="url(#legend3cd2bb)"><g class="groups"><g class="traces" transform="translate(0,14.5)" style="opacity: 1;"><text class="legendtext" text-anchor="start" x="40" y="3.5100000000000002" style="font-family: 'Courier New', monospace; font-size: 9px; fill: rgb(102, 51, 153); fill-opacity: 1; white-space: pre;">trace 2</text><g class="layers" style="opacity: 1;"><g class="legendfill"/><g class="legendlines"/><g class="legendsymbols"><g class="legendpoints"><path class="scatterpts" transform="translate(20,0)" d="M4.5,0A4.5,4.5 0 1,1 0,-4.5A4.5,4.5 0 0,1 4.5,0Z" style="opacity: 1; stroke-width: 1px; fill: rgb(255, 0, 0); fill-opacity: 1; stroke: rgb(147, 112, 219); stroke-opacity: 1;"/></g></g></g><rect class="legendtoggle" x="0" y="-9.5" width="77.8125" height="19" style="fill: rgb(0, 0, 0); fill-opacity: 0;"/></g></g></g><rect class="scrollbar" rx="20" ry="3" width="0" height="0" x="0" y="0" style="fill: rgb(128, 139, 164); fill-opacity: 1;"/></g><g class="g-gtitle"><text class="gtitle" x="32.5" y="30" text-anchor="start" dy="0em" style="font-family: 'Courier New', monospace; font-size: 13px; fill: rgb(102, 51, 153); opacity: 1; font-weight: normal; white-space: pre;">Prediction taux salarial pour Personnel de soutien des métiers, manoeuvres et aides d'entreprise en construction et autre personnel assimilé [76]</text></g><g class="rangeslider-container" pointer-events="all" transform="translate(80,238)"><rect class="rangeslider-bg" x="0" y="0" shape-rendering="crispEdges" width="466" height="31.5" transform="" fill="#E5ECF6" stroke="#444" stroke-width="0"/><g class="rangeslider-rangeplot xy" clip-path="url(#rangesliderx-3cd2bb)"><g class="layer-subplot"><g class="shapelayer"/><g class="imagelayer"/></g><g class="minor-gridlayer"><g class="x"/><g class="y"/></g><g class="gridlayer"><g class="x"/><g class="y"/></g><g class="zerolinelayer"/><path class="xlines-below"/><path class="ylines-below"/><g class="overlines-below"/><g class="xaxislayer-below"/><g class="yaxislayer-below"/><g class="overaxes-below"/><g class="plot"><g class="scatterlayer mlayer rangeplot"><g class="trace scatter trace98600b" style="stroke-miterlimit: 2; opacity: 1;"><g class="fills"/><g class="errorbars"/><g class="lines"/><g class="points"><path class="point" transform="translate(148.81,21.76)" d="M3,0A3,3 0 1,1 0,-3A3,3 0 0,1 3,0Z" style="opacity: 0.65; stroke-width: 0px; fill: rgb(99, 110, 250); fill-opacity: 1;"/><path class="point" transform="translate(175.89,20.44)" d="M3,0A3,3 0 1,1 0,-3A3,3 0 0,1 3,0Z" style="opacity: 0.65; stroke-width: 0px; fill: rgb(99, 110, 250); fill-opacity: 1;"/><path class="point" transform="translate(162.3,21.49)" d="M3,0A3,3 0 1,1 0,-3A3,3 0 0,1 3,0Z" style="opacity: 0.65; stroke-width: 0px; fill: rgb(99, 110, 250); fill-opacity: 1;"/><path class="point" transform="translate(186.68,20.13)" d="M3,0A3,3 0 1,1 0,-3A3,3 0 0,1 3,0Z" style="opacity: 0.65; stroke-width: 0px; fill: rgb(99, 110, 250); fill-opacity: 1;"/><path class="point" transform="translate(146.78,20.91)" d="M3,0A3,3 0 1,1 0,-3A3,3 0 0,1 3,0Z" style="opacity: 0.65; stroke-width: 0px; fill: rgb(99, 110, 250); fill-opacity: 1;"/><path class="point" transform="translate(198.92,19.47)" d="M3,0A3,3 0 1,1 0,-3A3,3 0 0,1 3,0Z" style="opacity: 0.65; stroke-width: 0px; fill: rgb(99, 110, 250); fill-opacity: 1;"/></g><g class="text"/></g><g class="trace scatter trace7c64b4" style="stroke-miterlimit: 2; opacity: 1;"><g class="fills"/><g class="errorbars"/><g class="lines"><path class="js-line" d="M146.78,21.54L198.92,19.64" style="vector-effect: non-scaling-stroke; fill: none; stroke: rgb(99, 110, 250); stroke-opacity: 1; stroke-width: 2px; opacity: 1;"/></g><g class="points"/><g class="text"/></g><g class="trace scatter trace710378" style="stroke-miterlimit: 2; opacity: 1;"><g class="fills"/><g class="errorbars"/><g class="lines"/><g class="points"><path class="point" transform="translate(162.13,20.82)" d="M4.5,0A4.5,4.5 0 1,1 0,-4.5A4.5,4.5 0 0,1 4.5,0Z" style="opacity: 1; stroke-width: 1px; fill: rgb(255, 0, 0); fill-opacity: 1; stroke: rgb(147, 112, 219); stroke-opacity: 1;"/></g><g class="text"/></g></g></g><g class="overplot"/><path class="xlines-above crisp" style="fill: none;"/><path class="ylines-above crisp" style="fill: none;"/><g class="overlines-above"/><g class="xaxislayer-above"/><g class="yaxislayer-above"/><g class="overaxes-above"/></g><rect class="rangeslider-mask-min" x="0" y="0" shape-rendering="crispEdges" height="31.5" width="0" style="fill: rgb(0, 0, 0); fill-opacity: 0.4;"/><rect class="rangeslider-mask-max" y="0" shape-rendering="crispEdges" height="31.5" x="466" width="0" style="fill: rgb(0, 0, 0); fill-opacity: 0.4;"/><g class="rangeslider-grabber-min" transform="translate(-2.5,0.5)"><rect class="rangeslider-handle-min" x="0" width="4" rx="1" fill="#fff" stroke="#444" stroke-width="1" shape-rendering="crispEdges" y="8" height="16"/><rect class="rangeslider-grabarea-min" width="10" x="0" y="0" fill="transparent" height="31.5"/></g><g class="rangeslider-grabber-max" transform="translate(464.5,0.5)"><rect class="rangeslider-handle-max" x="0" width="4" rx="1" fill="#fff" stroke="#444" stroke-width="1" shape-rendering="crispEdges" y="8" height="16"/><rect class="rangeslider-grabarea-max" width="10" x="0" y="0" fill="transparent" height="31.5"/></g></g><g class="g-ytitle"><text class="ytitle" transform="rotate(-90,45.4875,135)" x="45.4875" y="135" text-anchor="middle" style="font-family: 'Courier New', monospace; font-size: 11px; fill: rgb(102, 51, 153); opacity: 1; font-weight: normal; white-space: pre;">le salaire horaire moyen predit</text></g><g class="g-xtitle"><text class="xtitle" x="313" y="296" text-anchor="middle" style="font-family: 'Courier New', monospace; font-size: 11px; fill: rgb(102, 51, 153); opacity: 1; font-weight: normal; white-space: pre;">le salaire horaire moyen réel</text></g></g></svg>